{
  "source": "C:\\Users\\Peter\\Desktop\\stuff\\MIUN\\quantitative_research\\video_compression\\videos\\UVG\\YachtRide_1920x1080_120fps_420_8bit_YUV.y4m",
  "output": "C:\\Users\\Peter\\Desktop\\stuff\\MIUN\\quantitative_research\\video_compression\\compressed_videos\\UVG\\av1\\1.5\\YachtRide_1920x1080_120fps_420_8bit_YUV_av1.mkv",
  "codec": "av1",
  "ok": "[yuv4mpegpipe @ 0000023574475380] Stream #0: not enough frames to estimate rate; consider increasing probesize\nInput #0, yuv4mpegpipe, from 'C:\\Users\\Peter\\Desktop\\stuff\\MIUN\\quantitative_research\\video_compression\\videos\\UVG\\YachtRide_1920x1080_120fps_420_8bit_YUV.y4m':\n  Duration: 00:00:05.00, start: 0.000000, bitrate: 2985989 kb/s\n  Stream #0:0: Video: rawvideo (I420 / 0x30323449), yuv420p(progressive), 1920x1080, 120 fps, 120 tbr, 120 tbn\n[out#0/matroska @ 00000235744790c0] Codec AVOption b:a (set bitrate (in bits/s)) has not been used for any stream. The most likely reason is either wrong type (e.g. a video option with no video streams) or that it is a private option of some decoder which was not actually used for any stream.\nStream mapping:\n  Stream #0:0 -> #0:0 (rawvideo (native) -> av1 (libsvtav1))\nPress [q] to stop, [?] for help\nSvt[info]: -------------------------------------------\nSvt[info]: SVT [version]:\tSVT-AV1 Encoder Lib v3.1.0-19-g6ecfe8ec\nSvt[info]: SVT [build]  :\tGCC 15.2.0\t 64 bit\nSvt[info]: LIB Build date: Aug 17 2025 11:37:13\nSvt[info]: -------------------------------------------\n[libsvtav1 @ 000002357447c1c0] Specified chroma sample location center is unsupported on the AV1 bit stream level. Usage of a container that allows passing this information - such as Matroska - is recommended.\nSvt[info]: Level of Parallelism: 5\nSvt[info]: Number of PPCS 93\nSvt[info]: [asm level on system : up to avx2]\nSvt[info]: [asm level selected : up to avx2]\nSvt[info]: -------------------------------------------\nSvt[info]: SVT [config]: main profile\ttier (auto)\tlevel (auto)\nSvt[info]: SVT [config]: width / height / fps numerator / fps denominator \t\t: 1920 / 1080 / 120 / 1\nSvt[info]: SVT [config]: bit-depth / color format \t\t\t\t\t: 8 / YUV420\nSvt[info]: SVT [config]: preset / tune / pred struct \t\t\t\t\t: 4 / PSNR / random access\nSvt[info]: SVT [config]: gop size / mini-gop size / key-frame type \t\t\t: 641 / 16 / key frame\nSvt[info]: SVT [config]: BRC mode / target bitrate (kbps)\t\t\t\t: VBR / 1500 \nSvt[info]: SVT [config]: AQ mode / Variance Boost \t\t\t\t\t: 2 / 0\nSvt[info]: SVT [config]: sharpness / luminance-based QP bias \t\t\t\t: 0 / 0\nSvt[info]: SVT [config]: QP scale compress strength \t\t\t\t\t: 0\nSvt[info]: -------------------------------------------\nOutput #0, matroska, to 'C:\\Users\\Peter\\Desktop\\stuff\\MIUN\\quantitative_research\\video_compression\\compressed_videos\\UVG\\av1\\1.5\\YachtRide_1920x1080_120fps_420_8bit_YUV_av1.mkv':\n  Metadata:\n    encoder         : Lavf62.3.100\n  Stream #0:0: Video: av1 (AV01 / 0x31305641), yuv420p(tv, progressive), 1920x1080, q=2-31, 1500 kb/s, 120 fps, 1k tbn\n    Metadata:\n      encoder         : Lavc62.11.100 libsvtav1\n    Side data:\n      cpb: bitrate max/min/avg: 0/0/1500000 buffer size: 1500000 vbv_delay: N/A\nframe=    0 fps=0.0 q=0.0 size=       0KiB time=N/A bitrate=N/A speed=N/A elapsed=0:00:05.69    \nframe=    0 fps=0.0 q=0.0 size=       0KiB time=N/A bitrate=N/A speed=N/A elapsed=0:00:06.20    \nframe=    0 fps=0.0 q=0.0 size=       0KiB time=N/A bitrate=N/A speed=N/A elapsed=0:00:06.72    \nframe=    0 fps=0.0 q=0.0 size=       0KiB time=N/A bitrate=N/A speed=N/A elapsed=0:00:07.22    \nframe=    0 fps=0.0 q=0.0 size=       0KiB time=N/A bitrate=N/A speed=N/A elapsed=0:00:07.74    \nframe=    0 fps=0.0 q=0.0 size=       0KiB time=N/A bitrate=N/A speed=N/A elapsed=0:00:08.26    \nframe=    0 fps=0.0 q=0.0 size=       0KiB time=N/A bitrate=N/A speed=N/A elapsed=0:00:08.78    \nframe=    0 fps=0.0 q=0.0 size=       0KiB time=N/A bitrate=N/A speed=N/A elapsed=0:00:09.28    \nframe=    0 fps=0.0 q=0.0 size=       0KiB time=N/A bitrate=N/A speed=N/A elapsed=0:00:09.80    \nframe=    0 fps=0.0 q=0.0 size=       0KiB time=N/A bitrate=N/A speed=N/A elapsed=0:00:10.32    \nframe=    0 fps=0.0 q=0.0 size=       0KiB time=N/A bitrate=N/A speed=N/A elapsed=0:00:10.84    \nframe=    0 fps=0.0 q=0.0 size=       0KiB time=N/A bitrate=N/A speed=N/A elapsed=0:00:11.36    \nframe=    0 fps=0.0 q=0.0 size=       0KiB time=N/A bitrate=N/A speed=N/A elapsed=0:00:11.87    \nframe=    0 fps=0.0 q=0.0 size=       0KiB time=N/A bitrate=N/A speed=N/A elapsed=0:00:12.39    \nframe=    0 fps=0.0 q=0.0 size=       0KiB time=N/A bitrate=N/A speed=N/A elapsed=0:00:12.92    \nframe=    0 fps=0.0 q=0.0 size=       0KiB time=N/A bitrate=N/A speed=N/A elapsed=0:00:13.43    \nframe=    0 fps=0.0 q=0.0 size=       0KiB time=N/A bitrate=N/A speed=N/A elapsed=0:00:13.95    \nframe=    1 fps=0.1 q=44.0 size=       1KiB time=00:00:00.00 bitrate=N/A speed=   0x elapsed=0:00:14.46    \nframe=    1 fps=0.1 q=44.0 size=       1KiB time=00:00:00.00 bitrate=N/A speed=   0x elapsed=0:00:14.99    \nframe=    1 fps=0.1 q=44.0 size=       1KiB time=00:00:00.00 bitrate=N/A speed=   0x elapsed=0:00:15.50    \nframe=    1 fps=0.1 q=44.0 size=       1KiB time=00:00:00.00 bitrate=N/A speed=   0x elapsed=0:00:16.00    \nframe=    1 fps=0.1 q=44.0 size=       1KiB time=00:00:00.00 bitrate=N/A speed=   0x elapsed=0:00:16.52    \nframe=    1 fps=0.1 q=44.0 size=       1KiB time=00:00:00.00 bitrate=N/A speed=   0x elapsed=0:00:17.04    \nframe=    1 fps=0.1 q=44.0 size=       1KiB time=00:00:00.00 bitrate=N/A speed=   0x elapsed=0:00:17.56    \nframe=    3 fps=0.2 q=61.0 size=       1KiB time=00:00:00.01 bitrate= 268.8kbits/s speed=0.000922x elapsed=0:00:18.07    \nframe=    6 fps=0.3 q=60.0 size=       1KiB time=00:00:00.04 bitrate= 107.5kbits/s speed=0.00224x elapsed=0:00:18.59    \nframe=    8 fps=0.4 q=60.0 size=       1KiB time=00:00:00.05 bitrate=  76.8kbits/s speed=0.00305x elapsed=0:00:19.11    \nframe=    9 fps=0.5 q=57.0 size=       1KiB time=00:00:00.06 bitrate=  67.2kbits/s speed=0.0034x elapsed=0:00:19.63    \nframe=   12 fps=0.6 q=58.0 size=       1KiB time=00:00:00.09 bitrate=  48.9kbits/s speed=0.00455x elapsed=0:00:20.13    \nframe=   12 fps=0.6 q=58.0 size=       1KiB time=00:00:00.09 bitrate=  48.9kbits/s speed=0.00444x elapsed=0:00:20.66    \nframe=   13 fps=0.6 q=58.0 size=       1KiB time=00:00:00.10 bitrate=  44.8kbits/s speed=0.00472x elapsed=0:00:21.17    \nframe=   15 fps=0.7 q=57.0 size=       1KiB time=00:00:00.11 bitrate=  38.4kbits/s speed=0.00538x elapsed=0:00:21.69    \nframe=   18 fps=0.8 q=57.0 size=       1KiB time=00:00:00.14 bitrate=  31.6kbits/s speed=0.00638x elapsed=0:00:22.20    \nframe=   18 fps=0.8 q=57.0 size=       1KiB time=00:00:00.14 bitrate=  31.6kbits/s speed=0.00624x elapsed=0:00:22.71    \nframe=   20 fps=0.9 q=52.0 size=       1KiB time=00:00:00.15 bitrate=  28.3kbits/s speed=0.00681x elapsed=0:00:23.24    \nframe=   22 fps=0.9 q=59.0 size=       1KiB time=00:00:00.17 bitrate=  25.6kbits/s speed=0.00737x elapsed=0:00:23.75    \nframe=   23 fps=0.9 q=56.0 size=       1KiB time=00:00:00.18 bitrate=  24.4kbits/s speed=0.00755x elapsed=0:00:24.27    \nframe=   24 fps=1.0 q=54.0 size=       1KiB time=00:00:00.19 bitrate=  23.4kbits/s speed=0.00773x elapsed=0:00:24.78    \nframe=   26 fps=1.0 q=55.0 size=       1KiB time=00:00:00.20 bitrate=  21.5kbits/s speed=0.00824x elapsed=0:00:25.29    \nframe=   27 fps=1.0 q=59.0 size=       1KiB time=00:00:00.21 bitrate=  20.7kbits/s speed=0.00839x elapsed=0:00:25.81    \nframe=   27 fps=1.0 q=59.0 size=       1KiB time=00:00:00.21 bitrate=  20.7kbits/s speed=0.00823x elapsed=0:00:26.33    \nframe=   28 fps=1.0 q=55.0 size=       1KiB time=00:00:00.22 bitrate=  19.9kbits/s speed=0.00838x elapsed=0:00:26.83    \nframe=   30 fps=1.1 q=57.0 size=       1KiB time=00:00:00.24 bitrate=  18.5kbits/s speed=0.00883x elapsed=0:00:27.36    \nframe=   31 fps=1.1 q=57.0 size=       1KiB time=00:00:00.25 bitrate=  17.9kbits/s speed=0.00896x elapsed=0:00:27.89    \nframe=   33 fps=1.2 q=52.0 size=       1KiB time=00:00:00.26 bitrate=  16.8kbits/s speed=0.00939x elapsed=0:00:28.41    \nframe=   34 fps=1.2 q=57.0 size=       1KiB time=00:00:00.27 bitrate=  16.3kbits/s speed=0.00951x elapsed=0:00:28.91    \nframe=   35 fps=1.2 q=57.0 size=       1KiB time=00:00:00.28 bitrate=  15.8kbits/s speed=0.00962x elapsed=0:00:29.44    \nframe=   36 fps=1.2 q=52.0 size=       1KiB time=00:00:00.29 bitrate=  15.4kbits/s speed=0.00974x elapsed=0:00:29.94    \nframe=   37 fps=1.2 q=58.0 size=       1KiB time=00:00:00.30 bitrate=  14.9kbits/s speed=0.00984x elapsed=0:00:30.47    \nframe=   38 fps=1.2 q=59.0 size=       1KiB time=00:00:00.30 bitrate=  14.5kbits/s speed=0.00995x elapsed=0:00:30.97    \nframe=   39 fps=1.2 q=57.0 size=       1KiB time=00:00:00.31 bitrate=  14.1kbits/s speed=0.0101x elapsed=0:00:31.49    \nframe=   41 fps=1.3 q=57.0 size=       1KiB time=00:00:00.33 bitrate=  13.4kbits/s speed=0.0104x elapsed=0:00:32.01    \nframe=   43 fps=1.3 q=58.0 size=       1KiB time=00:00:00.34 bitrate=  13.1kbits/s speed=0.0104x elapsed=0:00:32.69    \nframe=   43 fps=1.3 q=58.0 size=       1KiB time=00:00:00.35 bitrate=  12.8kbits/s speed=0.0105x elapsed=0:00:33.34    \nframe=   44 fps=1.3 q=53.0 size=       1KiB time=00:00:00.35 bitrate=  12.5kbits/s speed=0.0106x elapsed=0:00:33.85    \nframe=   46 fps=1.3 q=57.0 size=       1KiB time=00:00:00.37 bitrate=  11.9kbits/s speed=0.0109x elapsed=0:00:34.36    \nframe=   47 fps=1.3 q=58.0 size=       1KiB time=00:00:00.38 bitrate=  11.7kbits/s speed=0.011x elapsed=0:00:34.89    \nframe=   49 fps=1.4 q=49.0 size=       1KiB time=00:00:00.40 bitrate=  11.2kbits/s speed=0.0113x elapsed=0:00:35.42    \nframe=   51 fps=1.4 q=57.0 size=       1KiB time=00:00:00.41 bitrate=  10.8kbits/s speed=0.0116x elapsed=0:00:35.94    \nframe=   52 fps=1.4 q=53.0 size=       1KiB time=00:00:00.42 bitrate=  10.5kbits/s speed=0.0117x elapsed=0:00:36.44    \nframe=   53 fps=1.4 q=58.0 size=       1KiB time=00:00:00.43 bitrate=  10.3kbits/s speed=0.0117x elapsed=0:00:36.96    \nframe=   54 fps=1.4 q=54.0 size=       1KiB time=00:00:00.44 bitrate=  10.1kbits/s speed=0.0118x elapsed=0:00:37.49    \nframe=   54 fps=1.4 q=54.0 size=       1KiB time=00:00:00.44 bitrate=  10.1kbits/s speed=0.0116x elapsed=0:00:37.99    \nframe=   55 fps=1.4 q=57.0 size=       1KiB time=00:00:00.45 bitrate=  10.0kbits/s speed=0.0117x elapsed=0:00:38.51    \nframe=   56 fps=1.4 q=55.0 size=       1KiB time=00:00:00.45 bitrate=   9.8kbits/s speed=0.0117x elapsed=0:00:39.02    \nframe=   58 fps=1.5 q=55.0 size=       1KiB time=00:00:00.47 bitrate=   9.4kbits/s speed=0.012x elapsed=0:00:39.54    \nframe=   59 fps=1.5 q=57.0 size=       1KiB time=00:00:00.48 bitrate=   9.3kbits/s speed=0.0121x elapsed=0:00:40.05    \nframe=   60 fps=1.5 q=54.0 size=       1KiB time=00:00:00.49 bitrate=   9.1kbits/s speed=0.0121x elapsed=0:00:40.57    \nframe=   61 fps=1.5 q=56.0 size=       1KiB time=00:00:00.50 bitrate=   9.0kbits/s speed=0.0122x elapsed=0:00:41.09    \nframe=   63 fps=1.5 q=57.0 size=       1KiB time=00:00:00.51 bitrate=   8.7kbits/s speed=0.0124x elapsed=0:00:41.60    \nframe=   66 fps=1.6 q=57.0 size=       1KiB time=00:00:00.54 bitrate=   8.3kbits/s speed=0.0129x elapsed=0:00:42.12    \nframe=   67 fps=1.6 q=58.0 size=       1KiB time=00:00:00.55 bitrate=   8.1kbits/s speed=0.0129x elapsed=0:00:42.63    \nframe=   68 fps=1.6 q=57.0 size=       1KiB time=00:00:00.55 bitrate=   8.0kbits/s speed=0.0129x elapsed=0:00:43.15    \nframe=   70 fps=1.6 q=57.0 size=       1KiB time=00:00:00.57 bitrate=   7.8kbits/s speed=0.0132x elapsed=0:00:43.67    \nframe=   70 fps=1.6 q=57.0 size=       1KiB time=00:00:00.57 bitrate=   7.8kbits/s speed=0.013x elapsed=0:00:44.18    \nframe=   71 fps=1.6 q=57.0 size=       1KiB time=00:00:00.58 bitrate=   7.7kbits/s speed=0.013x elapsed=0:00:44.70    \nframe=   71 fps=1.6 q=57.0 size=       1KiB time=00:00:00.58 bitrate=   7.7kbits/s speed=0.0129x elapsed=0:00:45.21    \nframe=   74 fps=1.6 q=58.0 size=       1KiB time=00:00:00.60 bitrate=   7.4kbits/s speed=0.0133x elapsed=0:00:45.74    \nframe=   76 fps=1.6 q=58.0 size=       1KiB time=00:00:00.62 bitrate=   7.2kbits/s speed=0.0135x elapsed=0:00:46.26    \nframe=   78 fps=1.7 q=58.0 size=       1KiB time=00:00:00.64 bitrate=   7.0kbits/s speed=0.0137x elapsed=0:00:46.78    \nframe=   80 fps=1.7 q=58.0 size=       1KiB time=00:00:00.65 bitrate=   6.8kbits/s speed=0.0139x elapsed=0:00:47.30    \nframe=   82 fps=1.7 q=58.0 size=       1KiB time=00:00:00.67 bitrate=   6.6kbits/s speed=0.0141x elapsed=0:00:47.80    \nframe=   84 fps=1.7 q=58.0 size=       1KiB time=00:00:00.69 bitrate=   6.5kbits/s speed=0.0143x elapsed=0:00:48.32    \nframe=   87 fps=1.8 q=58.0 size=       1KiB time=00:00:00.71 bitrate=   6.3kbits/s speed=0.0147x elapsed=0:00:48.83    \nframe=   88 fps=1.8 q=58.0 size=       1KiB time=00:00:00.72 bitrate=   6.2kbits/s speed=0.0147x elapsed=0:00:49.36    \nframe=   90 fps=1.8 q=58.0 size=       1KiB time=00:00:00.74 bitrate=   6.0kbits/s speed=0.0149x elapsed=0:00:49.87    \nframe=   91 fps=1.8 q=58.0 size=       1KiB time=00:00:00.75 bitrate=   6.0kbits/s speed=0.0149x elapsed=0:00:50.38    \nframe=   92 fps=1.8 q=57.0 size=       1KiB time=00:00:00.75 bitrate=   5.9kbits/s speed=0.0149x elapsed=0:00:50.90    \nframe=   93 fps=1.8 q=58.0 size=       1KiB time=00:00:00.76 bitrate=   5.8kbits/s speed=0.0149x elapsed=0:00:51.42    \nframe=   96 fps=1.8 q=58.0 size=       1KiB time=00:00:00.79 bitrate=   5.7kbits/s speed=0.0152x elapsed=0:00:51.93    \nframe=   99 fps=1.9 q=58.0 size=       1KiB time=00:00:00.81 bitrate=   5.5kbits/s speed=0.0156x elapsed=0:00:52.45    \nframe=  101 fps=1.9 q=58.0 size=       1KiB time=00:00:00.83 bitrate=   5.4kbits/s speed=0.0157x elapsed=0:00:52.96    \nframe=  102 fps=1.9 q=58.0 size=       1KiB time=00:00:00.84 bitrate=   5.3kbits/s speed=0.0157x elapsed=0:00:53.48    \nframe=  103 fps=1.9 q=57.0 size=       1KiB time=00:00:00.85 bitrate=   5.3kbits/s speed=0.0157x elapsed=0:00:54.00    \nframe=  106 fps=1.9 q=58.0 size=       1KiB time=00:00:00.87 bitrate=   5.1kbits/s speed=0.0161x elapsed=0:00:54.50    \nframe=  107 fps=1.9 q=58.0 size=       1KiB time=00:00:00.88 bitrate=   5.1kbits/s speed=0.0161x elapsed=0:00:55.02    \nframe=  109 fps=2.0 q=57.0 size=       1KiB time=00:00:00.90 bitrate=   5.0kbits/s speed=0.0162x elapsed=0:00:55.54    \nframe=  112 fps=2.0 q=58.0 size=       1KiB time=00:00:00.92 bitrate=   4.8kbits/s speed=0.0165x elapsed=0:00:56.06    \nframe=  115 fps=2.0 q=58.0 size=       1KiB time=00:00:00.95 bitrate=   4.7kbits/s speed=0.0168x elapsed=0:00:56.57    \nframe=  117 fps=2.0 q=58.0 size=       1KiB time=00:00:00.96 bitrate=   4.6kbits/s speed=0.0169x elapsed=0:00:57.09    \nframe=  118 fps=2.0 q=58.0 size=       1KiB time=00:00:00.97 bitrate=   4.6kbits/s speed=0.0169x elapsed=0:00:57.60    \nframe=  119 fps=2.0 q=58.0 size=       1KiB time=00:00:00.98 bitrate=   4.6kbits/s speed=0.0169x elapsed=0:00:58.11    \nframe=  119 fps=2.0 q=58.0 size=       1KiB time=00:00:00.98 bitrate=   4.6kbits/s speed=0.0168x elapsed=0:00:58.63    \nframe=  122 fps=2.1 q=58.0 size=       1KiB time=00:00:01.00 bitrate=   4.4kbits/s speed=0.017x elapsed=0:00:59.15    \nframe=  124 fps=2.1 q=58.0 size=       1KiB time=00:00:01.02 bitrate=   4.4kbits/s speed=0.0172x elapsed=0:00:59.67    \nframe=  126 fps=2.1 q=58.0 size=       1KiB time=00:00:01.04 bitrate=   4.3kbits/s speed=0.0173x elapsed=0:01:00.18    \nframe=  127 fps=2.1 q=58.0 size=       1KiB time=00:00:01.05 bitrate=   4.3kbits/s speed=0.0173x elapsed=0:01:00.70    \nframe=  128 fps=2.1 q=58.0 size=       1KiB time=00:00:01.05 bitrate=   4.2kbits/s speed=0.0173x elapsed=0:01:01.22    \nframe=  132 fps=2.1 q=58.0 size=       1KiB time=00:00:01.09 bitrate=   4.1kbits/s speed=0.0177x elapsed=0:01:01.73    \nframe=  134 fps=2.2 q=58.0 size=       1KiB time=00:00:01.10 bitrate=   4.0kbits/s speed=0.0178x elapsed=0:01:02.24    \nframe=  135 fps=2.2 q=58.0 size=       1KiB time=00:00:01.11 bitrate=   4.0kbits/s speed=0.0178x elapsed=0:01:02.76    \nframe=  136 fps=2.1 q=58.0 size=       1KiB time=00:00:01.12 bitrate=   4.0kbits/s speed=0.0178x elapsed=0:01:03.27    \nframe=  139 fps=2.2 q=58.0 size=       1KiB time=00:00:01.15 bitrate=   3.9kbits/s speed=0.018x elapsed=0:01:03.79    \nframe=  140 fps=2.2 q=58.0 size=       1KiB time=00:00:01.15 bitrate=   3.9kbits/s speed=0.018x elapsed=0:01:04.31    \nframe=  142 fps=2.2 q=58.0 size=       1KiB time=00:00:01.17 bitrate=   3.8kbits/s speed=0.0181x elapsed=0:01:04.83    \nframe=  143 fps=2.2 q=58.0 size=       1KiB time=00:00:01.18 bitrate=   3.8kbits/s speed=0.0181x elapsed=0:01:05.33    \nframe=  144 fps=2.2 q=58.0 size=       1KiB time=00:00:01.19 bitrate=   3.8kbits/s speed=0.0181x elapsed=0:01:05.85    \nframe=  145 fps=2.2 q=49.0 size=       1KiB time=00:00:01.20 bitrate=   3.7kbits/s speed=0.0181x elapsed=0:01:06.37    \nframe=  147 fps=2.2 q=59.0 size=       1KiB time=00:00:01.21 bitrate=   3.7kbits/s speed=0.0182x elapsed=0:01:06.89    \nframe=  149 fps=2.2 q=58.0 size=       1KiB time=00:00:01.23 bitrate=   3.6kbits/s speed=0.0183x elapsed=0:01:07.41    \nframe=  150 fps=2.2 q=59.0 size=       1KiB time=00:00:01.24 bitrate=   3.6kbits/s speed=0.0183x elapsed=0:01:07.92    \nframe=  151 fps=2.2 q=59.0 size=       1KiB time=00:00:01.25 bitrate=   3.6kbits/s speed=0.0183x elapsed=0:01:08.43    \nframe=  153 fps=2.2 q=57.0 size=       1KiB time=00:00:01.26 bitrate=   3.5kbits/s speed=0.0184x elapsed=0:01:08.95    \nframe=  154 fps=2.2 q=59.0 size=       1KiB time=00:00:01.27 bitrate=   3.5kbits/s speed=0.0184x elapsed=0:01:09.46    \nframe=  157 fps=2.2 q=58.0 size=       1KiB time=00:00:01.30 bitrate=   3.4kbits/s speed=0.0186x elapsed=0:01:09.98    \nframe=  158 fps=2.2 q=59.0 size=       1KiB time=00:00:01.30 bitrate=   3.4kbits/s speed=0.0186x elapsed=0:01:10.50    \nframe=  161 fps=2.3 q=50.0 size=       1KiB time=00:00:01.33 bitrate=   3.4kbits/s speed=0.0188x elapsed=0:01:11.03    \nframe=  162 fps=2.3 q=59.0 size=       1KiB time=00:00:01.34 bitrate=   3.3kbits/s speed=0.0188x elapsed=0:01:11.54    \nframe=  165 fps=2.3 q=59.0 size=       1KiB time=00:00:01.36 bitrate=   3.3kbits/s speed=0.019x elapsed=0:01:12.06    \nframe=  167 fps=2.3 q=59.0 size=       1KiB time=00:00:01.38 bitrate=   3.2kbits/s speed=0.0191x elapsed=0:01:12.57    \nframe=  167 fps=2.3 q=59.0 size=       1KiB time=00:00:01.38 bitrate=   3.2kbits/s speed=0.0189x elapsed=0:01:13.09    \nframe=  168 fps=2.3 q=55.0 size=       1KiB time=00:00:01.39 bitrate=   3.2kbits/s speed=0.0189x elapsed=0:01:13.61    \nframe=  171 fps=2.3 q=59.0 size=       1KiB time=00:00:01.41 bitrate=   3.2kbits/s speed=0.0191x elapsed=0:01:14.12    \nframe=  172 fps=2.3 q=58.0 size=       1KiB time=00:00:01.42 bitrate=   3.1kbits/s speed=0.0191x elapsed=0:01:14.65    \nframe=  176 fps=2.3 q=59.0 size=       1KiB time=00:00:01.45 bitrate=   3.1kbits/s speed=0.0194x elapsed=0:01:15.17    \nframe=  179 fps=2.4 q=59.0 size=       1KiB time=00:00:01.48 bitrate=   3.0kbits/s speed=0.0196x elapsed=0:01:15.67    \nframe=  182 fps=2.4 q=59.0 size=       1KiB time=00:00:01.50 bitrate=   3.0kbits/s speed=0.0198x elapsed=0:01:16.20    \nframe=  183 fps=2.4 q=59.0 size=       1KiB time=00:00:01.51 bitrate=   3.0kbits/s speed=0.0198x elapsed=0:01:16.72    \nframe=  184 fps=2.4 q=59.0 size=       1KiB time=00:00:01.52 bitrate=   2.9kbits/s speed=0.0197x elapsed=0:01:17.23    \nframe=  187 fps=2.4 q=59.0 size=       1KiB time=00:00:01.55 bitrate=   2.9kbits/s speed=0.0199x elapsed=0:01:17.75    \nframe=  187 fps=2.4 q=59.0 size=       1KiB time=00:00:01.55 bitrate=   2.9kbits/s speed=0.0198x elapsed=0:01:18.27    \nframe=  189 fps=2.4 q=58.0 size=       1KiB time=00:00:01.56 bitrate=   2.9kbits/s speed=0.0199x elapsed=0:01:18.78    \nframe=  191 fps=2.4 q=58.0 size=       1KiB time=00:00:01.58 bitrate=   2.8kbits/s speed=0.02x elapsed=0:01:19.29    \nframe=  194 fps=2.4 q=59.0 size=       1KiB time=00:00:01.60 bitrate=   2.8kbits/s speed=0.0201x elapsed=0:01:19.81    \nframe=  197 fps=2.5 q=59.0 size=       1KiB time=00:00:01.63 bitrate=   2.7kbits/s speed=0.0203x elapsed=0:01:20.33    \nframe=  198 fps=2.4 q=59.0 size=       1KiB time=00:00:01.64 bitrate=   2.7kbits/s speed=0.0203x elapsed=0:01:20.85    \nframe=  199 fps=2.4 q=59.0 size=       1KiB time=00:00:01.65 bitrate=   2.7kbits/s speed=0.0203x elapsed=0:01:21.38    \nframe=  201 fps=2.5 q=57.0 size=       1KiB time=00:00:01.66 bitrate=   2.7kbits/s speed=0.0204x elapsed=0:01:21.89    \nframe=  204 fps=2.5 q=59.0 size=       1KiB time=00:00:01.69 bitrate=   2.6kbits/s speed=0.0205x elapsed=0:01:22.40    \nframe=  205 fps=2.5 q=58.0 size=       1KiB time=00:00:01.70 bitrate=   2.6kbits/s speed=0.0205x elapsed=0:01:22.91    \nframe=  206 fps=2.5 q=59.0 size=       1KiB time=00:00:01.70 bitrate=   2.6kbits/s speed=0.0205x elapsed=0:01:23.45    \nframe=  207 fps=2.5 q=59.0 size=       1KiB time=00:00:01.71 bitrate=   2.6kbits/s speed=0.0204x elapsed=0:01:24.00    \nframe=  210 fps=2.5 q=59.0 size=       1KiB time=00:00:01.74 bitrate=   2.6kbits/s speed=0.0206x elapsed=0:01:24.53    \nframe=  211 fps=2.5 q=59.0 size=       1KiB time=00:00:01.75 bitrate=   2.6kbits/s speed=0.0206x elapsed=0:01:25.09    \nframe=  212 fps=2.5 q=56.0 size=       1KiB time=00:00:01.75 bitrate=   2.5kbits/s speed=0.0205x elapsed=0:01:25.62    \nframe=  214 fps=2.5 q=58.0 size=       1KiB time=00:00:01.77 bitrate=   2.5kbits/s speed=0.0206x elapsed=0:01:26.13    \nframe=  214 fps=2.5 q=58.0 size=       1KiB time=00:00:01.77 bitrate=   2.5kbits/s speed=0.0205x elapsed=0:01:26.68    \nframe=  215 fps=2.5 q=56.0 size=       1KiB time=00:00:01.78 bitrate=   2.5kbits/s speed=0.0204x elapsed=0:01:27.25    \nframe=  216 fps=2.5 q=58.0 size=       1KiB time=00:00:01.79 bitrate=   2.5kbits/s speed=0.0204x elapsed=0:01:27.82    \nframe=  219 fps=2.5 q=59.0 size=       1KiB time=00:00:01.81 bitrate=   2.5kbits/s speed=0.0206x elapsed=0:01:28.34    \nframe=  221 fps=2.5 q=58.0 size=       1KiB time=00:00:01.83 bitrate=   2.4kbits/s speed=0.0206x elapsed=0:01:28.85    \nframe=  223 fps=2.5 q=59.0 size=       1KiB time=00:00:01.85 bitrate=   2.4kbits/s speed=0.0207x elapsed=0:01:29.37    \nframe=  225 fps=2.5 q=52.0 size=       1KiB time=00:00:01.86 bitrate=   2.4kbits/s speed=0.0208x elapsed=0:01:29.88    \nframe=  227 fps=2.5 q=59.0 size=       1KiB time=00:00:01.88 bitrate=   2.4kbits/s speed=0.0208x elapsed=0:01:30.41    \nframe=  230 fps=2.5 q=59.0 size=       1KiB time=00:00:01.90 bitrate=   2.3kbits/s speed=0.021x elapsed=0:01:30.94    \nframe=  230 fps=2.5 q=59.0 size=       1KiB time=00:00:01.90 bitrate=   2.3kbits/s speed=0.0209x elapsed=0:01:31.46    \nframe=  231 fps=2.5 q=59.0 size=       1KiB time=00:00:01.91 bitrate=   2.3kbits/s speed=0.0208x elapsed=0:01:32.01    \nframe=  231 fps=2.5 q=59.0 size=       1KiB time=00:00:01.91 bitrate=   2.3kbits/s speed=0.0207x elapsed=0:01:32.59    \nframe=  233 fps=2.5 q=57.0 size=       1KiB time=00:00:01.93 bitrate=   2.3kbits/s speed=0.0208x elapsed=0:01:33.11    \nframe=  235 fps=2.5 q=59.0 size=       1KiB time=00:00:01.95 bitrate=   2.3kbits/s speed=0.0208x elapsed=0:01:33.69    \nframe=  235 fps=2.5 q=59.0 size=       1KiB time=00:00:01.95 bitrate=   2.3kbits/s speed=0.0207x elapsed=0:01:34.28    \nframe=  236 fps=2.5 q=59.0 size=       1KiB time=00:00:01.95 bitrate=   2.3kbits/s speed=0.0206x elapsed=0:01:34.87    \nframe=  238 fps=2.5 q=59.0 size=       1KiB time=00:00:01.97 bitrate=   2.3kbits/s speed=0.0207x elapsed=0:01:35.47    \nframe=  238 fps=2.5 q=59.0 size=       1KiB time=00:00:01.97 bitrate=   2.3kbits/s speed=0.0206x elapsed=0:01:35.99    \nframe=  239 fps=2.5 q=59.0 size=       1KiB time=00:00:01.98 bitrate=   2.3kbits/s speed=0.0205x elapsed=0:01:36.55    \nframe=  239 fps=2.5 q=59.0 size=       1KiB time=00:00:01.98 bitrate=   2.3kbits/s speed=0.0204x elapsed=0:01:37.08    \nframe=  242 fps=2.5 q=59.0 size=       1KiB time=00:00:02.00 bitrate=   2.2kbits/s speed=0.0206x elapsed=0:01:37.67    \nframe=  243 fps=2.5 q=59.0 size=       1KiB time=00:00:02.01 bitrate=   2.2kbits/s speed=0.0205x elapsed=0:01:38.21    \nframe=  245 fps=2.5 q=59.0 size=       1KiB time=00:00:02.03 bitrate=   2.2kbits/s speed=0.0206x elapsed=0:01:38.81    \nframe=  246 fps=2.5 q=58.0 size=       1KiB time=00:00:02.04 bitrate=   2.2kbits/s speed=0.0205x elapsed=0:01:39.35    \nframe=  247 fps=2.5 q=57.0 size=       1KiB time=00:00:02.05 bitrate=   2.2kbits/s speed=0.0205x elapsed=0:01:39.86    \nframe=  248 fps=2.5 q=58.0 size=       1KiB time=00:00:02.05 bitrate=   2.2kbits/s speed=0.0205x elapsed=0:01:40.38    \nframe=  250 fps=2.5 q=60.0 size=       1KiB time=00:00:02.07 bitrate=   2.2kbits/s speed=0.0206x elapsed=0:01:40.91    \nframe=  251 fps=2.5 q=59.0 size=       1KiB time=00:00:02.08 bitrate=   2.2kbits/s speed=0.0205x elapsed=0:01:41.45    \nframe=  253 fps=2.5 q=58.0 size=       1KiB time=00:00:02.10 bitrate=   2.1kbits/s speed=0.0206x elapsed=0:01:41.96    \nframe=  256 fps=2.5 q=60.0 size=       1KiB time=00:00:02.12 bitrate=   2.1kbits/s speed=0.0207x elapsed=0:01:42.50    \nframe=  258 fps=2.5 q=60.0 size=       1KiB time=00:00:02.14 bitrate=   2.1kbits/s speed=0.0208x elapsed=0:01:43.05    \nframe=  262 fps=2.5 q=60.0 size=       1KiB time=00:00:02.17 bitrate=   2.1kbits/s speed=0.021x elapsed=0:01:43.57    \nframe=  262 fps=2.5 q=60.0 size=       1KiB time=00:00:02.17 bitrate=   2.1kbits/s speed=0.0209x elapsed=0:01:44.16    \nframe=  263 fps=2.5 q=60.0 size=       1KiB time=00:00:02.18 bitrate=   2.1kbits/s speed=0.0208x elapsed=0:01:44.74    \nframe=  265 fps=2.5 q=57.0 size=       1KiB time=00:00:02.20 bitrate=   2.0kbits/s speed=0.0209x elapsed=0:01:45.31    \nframe=  267 fps=2.5 q=59.0 size=       1KiB time=00:00:02.21 bitrate=   2.0kbits/s speed=0.0209x elapsed=0:01:45.84    \nframe=  269 fps=2.5 q=58.0 size=       1KiB time=00:00:02.23 bitrate=   2.0kbits/s speed=0.021x elapsed=0:01:46.51    \nframe=  271 fps=2.5 q=59.0 size=       1KiB time=00:00:02.25 bitrate=   2.0kbits/s speed=0.021x elapsed=0:01:47.08    \nframe=  274 fps=2.5 q=60.0 size=       1KiB time=00:00:02.27 bitrate=   2.0kbits/s speed=0.0211x elapsed=0:01:47.64    \nframe=  275 fps=2.5 q=60.0 size=       1KiB time=00:00:02.28 bitrate=   2.0kbits/s speed=0.0211x elapsed=0:01:48.20    \nframe=  275 fps=2.5 q=60.0 size=       1KiB time=00:00:02.28 bitrate=   2.0kbits/s speed=0.021x elapsed=0:01:48.74    \nframe=  277 fps=2.5 q=59.0 size=       1KiB time=00:00:02.30 bitrate=   1.9kbits/s speed=0.0211x elapsed=0:01:49.25    \nframe=  278 fps=2.5 q=58.0 size=       1KiB time=00:00:02.30 bitrate=   1.9kbits/s speed=0.021x elapsed=0:01:49.77    \nframe=  278 fps=2.5 q=58.0 size=       1KiB time=00:00:02.30 bitrate=   1.9kbits/s speed=0.0209x elapsed=0:01:50.33    \nframe=  279 fps=2.5 q=56.0 size=       1KiB time=00:00:02.31 bitrate=   1.9kbits/s speed=0.0209x elapsed=0:01:50.88    \nframe=  280 fps=2.5 q=58.0 size=       1KiB time=00:00:02.32 bitrate=   1.9kbits/s speed=0.0209x elapsed=0:01:51.40    \nframe=  283 fps=2.5 q=59.0 size=       1KiB time=00:00:02.35 bitrate=   1.9kbits/s speed=0.021x elapsed=0:01:51.93    \nframe=  285 fps=2.5 q=58.0 size=       1KiB time=00:00:02.35 bitrate=   1.9kbits/s speed=0.021x elapsed=0:01:52.45    \nframe=  287 fps=2.5 q=59.0 size=       1KiB time=00:00:02.38 bitrate=   1.9kbits/s speed=0.0211x elapsed=0:01:52.99    \nframe=  289 fps=2.5 q=52.0 size=       1KiB time=00:00:02.40 bitrate=   1.9kbits/s speed=0.0211x elapsed=0:01:53.54    \nframe=  291 fps=2.6 q=60.0 size=       1KiB time=00:00:02.40 bitrate=   1.9kbits/s speed=0.0211x elapsed=0:01:54.06    \nframe=  293 fps=2.6 q=59.0 size=       1KiB time=00:00:02.43 bitrate=   1.8kbits/s speed=0.0212x elapsed=0:01:54.63    \nframe=  294 fps=2.6 q=60.0 size=       1KiB time=00:00:02.44 bitrate=   1.8kbits/s speed=0.0212x elapsed=0:01:55.18    \nframe=  294 fps=2.5 q=60.0 size=       1KiB time=00:00:02.44 bitrate=   1.8kbits/s speed=0.0211x elapsed=0:01:55.73    \nframe=  295 fps=2.5 q=60.0 size=       1KiB time=00:00:02.45 bitrate=   1.8kbits/s speed=0.0211x elapsed=0:01:56.26    \nframe=  296 fps=2.5 q=56.0 size=       1KiB time=00:00:02.45 bitrate=   1.8kbits/s speed=0.021x elapsed=0:01:56.81    \nframe=  298 fps=2.5 q=60.0 size=       1KiB time=00:00:02.47 bitrate=   1.8kbits/s speed=0.0211x elapsed=0:01:57.39    \nframe=  299 fps=2.5 q=59.0 size=       1KiB time=00:00:02.48 bitrate=   1.8kbits/s speed=0.0211x elapsed=0:01:57.94    \nframe=  302 fps=2.5 q=60.0 size=       1KiB time=00:00:02.50 bitrate=   1.8kbits/s speed=0.0211x elapsed=0:01:58.48    \nframe=  303 fps=2.5 q=59.0 size=       1KiB time=00:00:02.51 bitrate=   1.8kbits/s speed=0.0211x elapsed=0:01:59.01    \nframe=  305 fps=2.6 q=52.0 size=       1KiB time=00:00:02.53 bitrate=   1.8kbits/s speed=0.0212x elapsed=0:01:59.54    \nframe=  308 fps=2.6 q=60.0 size=       1KiB time=00:00:02.55 bitrate=   1.8kbits/s speed=0.0213x elapsed=0:02:00.05    \nframe=  310 fps=2.6 q=60.0 size=       1KiB time=00:00:02.57 bitrate=   1.7kbits/s speed=0.0214x elapsed=0:02:00.57    \nframe=  310 fps=2.6 q=60.0 size=       1KiB time=00:00:02.57 bitrate=   1.7kbits/s speed=0.0213x elapsed=0:02:01.09    \nframe=  311 fps=2.6 q=60.0 size=       1KiB time=00:00:02.58 bitrate=   1.7kbits/s speed=0.0212x elapsed=0:02:01.66    \nframe=  313 fps=2.6 q=57.0 size=       1KiB time=00:00:02.60 bitrate=   1.7kbits/s speed=0.0213x elapsed=0:02:02.21    \nframe=  315 fps=2.6 q=59.0 size=       1KiB time=00:00:02.61 bitrate=   1.7kbits/s speed=0.0213x elapsed=0:02:02.73    \nframe=  316 fps=2.6 q=60.0 size=       1KiB time=00:00:02.62 bitrate=   1.7kbits/s speed=0.0213x elapsed=0:02:03.31    \nframe=  318 fps=2.6 q=60.0 size=       1KiB time=00:00:02.64 bitrate=   1.7kbits/s speed=0.0213x elapsed=0:02:03.87    \nframe=  321 fps=2.6 q=52.0 size=       1KiB time=00:00:02.66 bitrate=   1.7kbits/s speed=0.0214x elapsed=0:02:04.39    \nframe=  323 fps=2.6 q=60.0 size=       1KiB time=00:00:02.68 bitrate=   1.7kbits/s speed=0.0215x elapsed=0:02:04.92    \nframe=  325 fps=2.6 q=59.0 size=       1KiB time=00:00:02.70 bitrate=   1.7kbits/s speed=0.0215x elapsed=0:02:05.49    \nframe=  326 fps=2.6 q=58.0 size=       1KiB time=00:00:02.70 bitrate=   1.7kbits/s speed=0.0215x elapsed=0:02:05.99    \nframe=  327 fps=2.6 q=56.0 size=       1KiB time=00:00:02.71 bitrate=   1.6kbits/s speed=0.0215x elapsed=0:02:06.53    \nframe=  330 fps=2.6 q=60.0 size=       1KiB time=00:00:02.74 bitrate=   1.6kbits/s speed=0.0216x elapsed=0:02:07.04    \nframe=  333 fps=2.6 q=58.0 size=       1KiB time=00:00:02.76 bitrate=   1.6kbits/s speed=0.0217x elapsed=0:02:07.56    \nframe=  334 fps=2.6 q=60.0 size=       1KiB time=00:00:02.77 bitrate=   1.6kbits/s speed=0.0217x elapsed=0:02:08.07    \nframe=  336 fps=2.6 q=60.0 size=       1KiB time=00:00:02.79 bitrate=   1.6kbits/s speed=0.0217x elapsed=0:02:08.60    \nframe=  338 fps=2.6 q=60.0 size=       1KiB time=00:00:02.80 bitrate=   1.6kbits/s speed=0.0217x elapsed=0:02:09.12    \nframe=  340 fps=2.6 q=60.0 size=       1KiB time=00:00:02.82 bitrate=   1.6kbits/s speed=0.0218x elapsed=0:02:09.64    \nframe=  342 fps=2.6 q=60.0 size=       1KiB time=00:00:02.84 bitrate=   1.6kbits/s speed=0.0218x elapsed=0:02:10.29    \nframe=  342 fps=2.6 q=60.0 size=       1KiB time=00:00:02.84 bitrate=   1.6kbits/s speed=0.0217x elapsed=0:02:10.88    \nframe=  343 fps=2.6 q=60.0 size=       1KiB time=00:00:02.85 bitrate=   1.6kbits/s speed=0.0217x elapsed=0:02:11.39    \nframe=  347 fps=2.6 q=60.0 size=       1KiB time=00:00:02.88 bitrate=   1.6kbits/s speed=0.0219x elapsed=0:02:11.94    \nframe=  348 fps=2.6 q=60.0 size=       1KiB time=00:00:02.89 bitrate=   1.5kbits/s speed=0.0218x elapsed=0:02:12.47    \nframe=  350 fps=2.6 q=60.0 size=       1KiB time=00:00:02.90 bitrate=   1.5kbits/s speed=0.0219x elapsed=0:02:13.04    \nframe=  351 fps=2.6 q=59.0 size=       1KiB time=00:00:02.91 bitrate=   1.5kbits/s speed=0.0218x elapsed=0:02:13.62    \nframe=  354 fps=2.6 q=60.0 size=       1KiB time=00:00:02.94 bitrate=   1.5kbits/s speed=0.0219x elapsed=0:02:14.15    \nframe=  356 fps=2.6 q=56.0 size=       1KiB time=00:00:02.95 bitrate=   1.5kbits/s speed=0.022x elapsed=0:02:14.67    \nframe=  358 fps=2.6 q=58.0 size=       1KiB time=00:00:02.97 bitrate=   1.5kbits/s speed=0.022x elapsed=0:02:15.20    \nframe=  358 fps=2.6 q=58.0 size=       1KiB time=00:00:02.97 bitrate=   1.5kbits/s speed=0.0219x elapsed=0:02:15.73    \nframe=  359 fps=2.6 q=56.0 size=       1KiB time=00:00:02.98 bitrate=   1.5kbits/s speed=0.0219x elapsed=0:02:16.24    \nframe=  363 fps=2.7 q=60.0 size=       1KiB time=00:00:03.01 bitrate=   1.5kbits/s speed=0.0221x elapsed=0:02:16.75    \nframe=  364 fps=2.7 q=60.0 size=       1KiB time=00:00:03.02 bitrate=   1.5kbits/s speed=0.022x elapsed=0:02:17.31    \nframe=  366 fps=2.7 q=60.0 size=       1KiB time=00:00:03.04 bitrate=   1.5kbits/s speed=0.0221x elapsed=0:02:17.85    \nframe=  370 fps=2.7 q=60.0 size=       1KiB time=00:00:03.07 bitrate=   1.5kbits/s speed=0.0222x elapsed=0:02:18.37    \nframe=  372 fps=2.7 q=57.0 size=       1KiB time=00:00:03.09 bitrate=   1.4kbits/s speed=0.0223x elapsed=0:02:18.92    \nframe=  374 fps=2.7 q=59.0 size=       1KiB time=00:00:03.10 bitrate=   1.4kbits/s speed=0.0223x elapsed=0:02:19.46    \nframe=  375 fps=2.7 q=58.0 size=       1KiB time=00:00:03.11 bitrate=   1.4kbits/s speed=0.0223x elapsed=0:02:19.98    \nframe=  376 fps=2.7 q=59.0 size=       1KiB time=00:00:03.12 bitrate=   1.4kbits/s speed=0.0222x elapsed=0:02:20.52    \nframe=  378 fps=2.7 q=60.0 size=       1KiB time=00:00:03.14 bitrate=   1.4kbits/s speed=0.0223x elapsed=0:02:21.07    \nframe=  380 fps=2.7 q=60.0 size=       1KiB time=00:00:03.15 bitrate=   1.4kbits/s speed=0.0223x elapsed=0:02:21.63    \nframe=  382 fps=2.7 q=60.0 size=       1KiB time=00:00:03.17 bitrate=   1.4kbits/s speed=0.0223x elapsed=0:02:22.19    \nframe=  383 fps=2.7 q=59.0 size=       1KiB time=00:00:03.17 bitrate=   1.4kbits/s speed=0.0222x elapsed=0:02:22.81    \nframe=  383 fps=2.7 q=59.0 size=       1KiB time=00:00:03.18 bitrate=   1.4kbits/s speed=0.0222x elapsed=0:02:23.37    \nframe=  386 fps=2.7 q=60.0 size=       1KiB time=00:00:03.20 bitrate=   1.4kbits/s speed=0.0223x elapsed=0:02:23.88    \nframe=  390 fps=2.7 q=60.0 size=       1KiB time=00:00:03.24 bitrate=   1.4kbits/s speed=0.0224x elapsed=0:02:24.42    \nframe=  390 fps=2.7 q=60.0 size=       1KiB time=00:00:03.24 bitrate=   1.4kbits/s speed=0.0224x elapsed=0:02:24.96    \nframe=  392 fps=2.7 q=60.0 size=       1KiB time=00:00:03.25 bitrate=   1.4kbits/s speed=0.0224x elapsed=0:02:25.48    \nframe=  395 fps=2.7 q=59.0 size=       1KiB time=00:00:03.28 bitrate=   1.4kbits/s speed=0.0225x elapsed=0:02:26.01    \nframe=  399 fps=2.7 q=59.0 size=       1KiB time=00:00:03.31 bitrate=   1.4kbits/s speed=0.0226x elapsed=0:02:26.55    \nframe=  400 fps=2.7 q=60.0 size=       1KiB time=00:00:03.32 bitrate=   1.3kbits/s speed=0.0226x elapsed=0:02:27.06    \nframe=  405 fps=2.7 q=59.0 size=       1KiB time=00:00:03.35 bitrate=   1.3kbits/s speed=0.0228x elapsed=0:02:27.58    \nframe=  406 fps=2.7 q=60.0 size=       1KiB time=00:00:03.37 bitrate=   1.3kbits/s speed=0.0228x elapsed=0:02:28.15    \nframe=  407 fps=2.7 q=60.0 size=       1KiB time=00:00:03.38 bitrate=   1.3kbits/s speed=0.0228x elapsed=0:02:28.66    \nframe=  409 fps=2.7 q=57.0 size=       1KiB time=00:00:03.39 bitrate=   1.3kbits/s speed=0.0227x elapsed=0:02:29.18    \nframe=  412 fps=2.8 q=60.0 size=       1KiB time=00:00:03.42 bitrate=   1.3kbits/s speed=0.0229x elapsed=0:02:29.72    \nframe=  414 fps=2.8 q=60.0 size=       1KiB time=00:00:03.44 bitrate=   1.3kbits/s speed=0.0229x elapsed=0:02:30.27    \nframe=  415 fps=2.8 q=59.0 size=       1KiB time=00:00:03.45 bitrate=   1.3kbits/s speed=0.0229x elapsed=0:02:30.81    \nframe=  418 fps=2.8 q=60.0 size=       1KiB time=00:00:03.47 bitrate=   1.3kbits/s speed=0.023x elapsed=0:02:31.33    \nframe=  421 fps=2.8 q=59.0 size=       1KiB time=00:00:03.50 bitrate=   1.3kbits/s speed=0.0231x elapsed=0:02:31.83    \nframe=  422 fps=2.8 q=58.0 size=       1KiB time=00:00:03.50 bitrate=   1.3kbits/s speed=0.023x elapsed=0:02:32.40    \nframe=  422 fps=2.8 q=58.0 size=       1KiB time=00:00:03.50 bitrate=   1.3kbits/s speed=0.0229x elapsed=0:02:32.96    \nframe=  423 fps=2.8 q=56.0 size=       1KiB time=00:00:03.51 bitrate=   1.3kbits/s speed=0.0229x elapsed=0:02:33.51    \nframe=  427 fps=2.8 q=59.0 size=       1KiB time=00:00:03.54 bitrate=   1.3kbits/s speed=0.023x elapsed=0:02:34.04    \nframe=  430 fps=2.8 q=60.0 size=       1KiB time=00:00:03.57 bitrate=   1.3kbits/s speed=0.0231x elapsed=0:02:34.58    \nframe=  433 fps=2.8 q=52.0 size=       1KiB time=00:00:03.60 bitrate=   1.2kbits/s speed=0.0232x elapsed=0:02:35.11    \nframe=  435 fps=2.8 q=60.0 size=       1KiB time=00:00:03.61 bitrate=   1.2kbits/s speed=0.0232x elapsed=0:02:35.71    \nframe=  438 fps=2.8 q=60.0 size=       1KiB time=00:00:03.64 bitrate=   1.2kbits/s speed=0.0233x elapsed=0:02:36.24    \nframe=  439 fps=2.8 q=60.0 size=       1KiB time=00:00:03.65 bitrate=   1.2kbits/s speed=0.0233x elapsed=0:02:36.76    \nframe=  441 fps=2.8 q=57.0 size=       1KiB time=00:00:03.66 bitrate=   1.2kbits/s speed=0.0233x elapsed=0:02:37.29    \nframe=  444 fps=2.8 q=60.0 size=       1KiB time=00:00:03.69 bitrate=   1.2kbits/s speed=0.0234x elapsed=0:02:37.87    \nframe=  447 fps=2.8 q=60.0 size=       1KiB time=00:00:03.70 bitrate=   1.2kbits/s speed=0.0234x elapsed=0:02:38.42    \nframe=  449 fps=2.8 q=52.0 size=       1KiB time=00:00:03.72 bitrate=   1.2kbits/s speed=0.0234x elapsed=0:02:38.98    \nframe=  450 fps=2.8 q=60.0 size=       1KiB time=00:00:03.74 bitrate=   1.2kbits/s speed=0.0235x elapsed=0:02:39.53    \nframe=  454 fps=2.8 q=60.0 size=       1KiB time=00:00:03.77 bitrate=   1.2kbits/s speed=0.0236x elapsed=0:02:40.12    \nframe=  455 fps=2.8 q=60.0 size=       1KiB time=00:00:03.78 bitrate=   1.2kbits/s speed=0.0236x elapsed=0:02:40.64    \nframe=  457 fps=2.8 q=57.0 size=       1KiB time=00:00:03.80 bitrate=   1.2kbits/s speed=0.0236x elapsed=0:02:41.23    \nframe=  461 fps=2.8 q=59.0 size=       1KiB time=00:00:03.82 bitrate=   1.2kbits/s speed=0.0236x elapsed=0:02:41.79    \nframe=  464 fps=2.9 q=60.0 size=       1KiB time=00:00:03.85 bitrate=   1.2kbits/s speed=0.0237x elapsed=0:02:42.63    \nframe=  466 fps=2.9 q=60.0 size=       1KiB time=00:00:03.87 bitrate=   1.2kbits/s speed=0.0237x elapsed=0:02:43.20    \nframe=  469 fps=2.9 q=59.0 size=       1KiB time=00:00:03.90 bitrate=   1.1kbits/s speed=0.0238x elapsed=0:02:43.77    \nframe=  470 fps=2.9 q=60.0 size=       1KiB time=00:00:03.90 bitrate=   1.1kbits/s speed=0.0238x elapsed=0:02:44.28    \nframe=  471 fps=2.9 q=60.0 size=       1KiB time=00:00:03.91 bitrate=   1.1kbits/s speed=0.0238x elapsed=0:02:44.82    \nframe=  473 fps=2.9 q=57.0 size=       1KiB time=00:00:03.93 bitrate=   1.1kbits/s speed=0.0238x elapsed=0:02:45.43    \nframe=  475 fps=2.9 q=59.0 size=       1KiB time=00:00:03.95 bitrate=   1.1kbits/s speed=0.0238x elapsed=0:02:45.96    \nframe=  478 fps=2.9 q=60.0 size=       1KiB time=00:00:03.96 bitrate=   1.1kbits/s speed=0.0238x elapsed=0:02:46.47    \nframe=  481 fps=2.9 q=52.0 size=       1KiB time=00:00:03.99 bitrate=   1.1kbits/s speed=0.0239x elapsed=0:02:47.05    \nframe=  482 fps=2.9 q=60.0 size=       1KiB time=00:00:04.00 bitrate=   1.1kbits/s speed=0.0239x elapsed=0:02:47.61    \nframe=  486 fps=2.9 q=60.0 size=       1KiB time=00:00:04.04 bitrate=   1.1kbits/s speed=0.024x elapsed=0:02:48.15    \nframe=  487 fps=2.9 q=60.0 size=       1KiB time=00:00:04.05 bitrate=   1.1kbits/s speed=0.024x elapsed=0:02:48.66    \nframe=  489 fps=2.9 q=57.0 size=       1KiB time=00:00:04.06 bitrate=   1.1kbits/s speed=0.024x elapsed=0:02:49.25    \nframe=  492 fps=2.9 q=60.0 size=       1KiB time=00:00:04.08 bitrate=   1.1kbits/s speed=0.024x elapsed=0:02:49.81    \nframe=  494 fps=2.9 q=60.0 size=       1KiB time=00:00:04.10 bitrate=   1.1kbits/s speed=0.0241x elapsed=0:02:50.37    \nframe=  495 fps=2.9 q=59.0 size=       1KiB time=00:00:04.11 bitrate=   1.1kbits/s speed=0.0241x elapsed=0:02:50.92    \nframe=  497 fps=2.9 q=52.0 size=       1KiB time=00:00:04.13 bitrate=   1.1kbits/s speed=0.0241x elapsed=0:02:51.45    \nframe=  500 fps=2.9 q=60.0 size=       1KiB time=00:00:04.15 bitrate=   1.1kbits/s speed=0.0242x elapsed=0:02:51.98    \nframe=  502 fps=2.9 q=60.0 size=       1KiB time=00:00:04.17 bitrate=   1.1kbits/s speed=0.0242x elapsed=0:02:52.53    \nframe=  502 fps=2.9 q=60.0 size=       1KiB time=00:00:04.17 bitrate=   1.1kbits/s speed=0.0241x elapsed=0:02:53.14    \nframe=  505 fps=2.9 q=57.0 size=       1KiB time=00:00:04.20 bitrate=   1.1kbits/s speed=0.0242x elapsed=0:02:53.74    \nframe=  507 fps=2.9 q=59.0 size=       1KiB time=00:00:04.21 bitrate=   1.1kbits/s speed=0.0242x elapsed=0:02:54.29    \nframe=  509 fps=2.9 q=58.0 size=       1KiB time=00:00:04.23 bitrate=   1.1kbits/s speed=0.0242x elapsed=0:02:54.83    \nframe=  513 fps=2.9 q=52.0 size=       1KiB time=00:00:04.26 bitrate=   1.0kbits/s speed=0.0243x elapsed=0:02:55.35    \nframe=  517 fps=2.9 q=59.0 size=       1KiB time=00:00:04.30 bitrate=   1.0kbits/s speed=0.0244x elapsed=0:02:55.92    \nframe=  521 fps=3.0 q=57.0 size=       1KiB time=00:00:04.33 bitrate=   1.0kbits/s speed=0.0246x elapsed=0:02:56.45    \nframe=  521 fps=2.9 q=57.0 size=       1KiB time=00:00:04.33 bitrate=   1.0kbits/s speed=0.0245x elapsed=0:02:57.03    \nframe=  521 fps=2.9 q=57.0 size=       1KiB time=00:00:04.33 bitrate=   1.0kbits/s speed=0.0244x elapsed=0:02:57.65    \nframe=  525 fps=2.9 q=58.0 size=       1KiB time=00:00:04.36 bitrate=   1.0kbits/s speed=0.0245x elapsed=0:02:58.18    \nframe=  529 fps=3.0 q=52.0 size=       1KiB time=00:00:04.40 bitrate=   1.0kbits/s speed=0.0246x elapsed=0:02:58.79    \nframe=  531 fps=3.0 q=60.0 size=       1KiB time=00:00:04.41 bitrate=   1.0kbits/s speed=0.0246x elapsed=0:02:59.36    \nframe=  533 fps=3.0 q=59.0 size=       1KiB time=00:00:04.43 bitrate=   1.0kbits/s speed=0.0246x elapsed=0:02:59.88    \nframe=  537 fps=3.0 q=57.0 size=       1KiB time=00:00:04.45 bitrate=   1.0kbits/s speed=0.0247x elapsed=0:03:00.39    \nframe=  537 fps=3.0 q=57.0 size=       1KiB time=00:00:04.46 bitrate=   1.0kbits/s speed=0.0247x elapsed=0:03:00.99    \nframe=  537 fps=3.0 q=57.0 size=       1KiB time=00:00:04.46 bitrate=   1.0kbits/s speed=0.0246x elapsed=0:03:01.50    \nframe=  541 fps=3.0 q=58.0 size=       1KiB time=00:00:04.50 bitrate=   1.0kbits/s speed=0.0247x elapsed=0:03:02.05    \nframe=  543 fps=3.0 q=59.0 size=       1KiB time=00:00:04.51 bitrate=   1.0kbits/s speed=0.0247x elapsed=0:03:02.59    \nframe=  547 fps=3.0 q=60.0 size=       1KiB time=00:00:04.55 bitrate=   1.0kbits/s speed=0.0248x elapsed=0:03:03.13    \nframe=  551 fps=3.0 q=56.0 size=       1KiB time=00:00:04.58 bitrate=   1.0kbits/s speed=0.025x elapsed=0:03:03.65    \nframe=  553 fps=3.0 q=57.0 size=       1KiB time=00:00:04.60 bitrate=   1.0kbits/s speed=0.025x elapsed=0:03:04.16    \nframe=  553 fps=3.0 q=57.0 size=       1KiB time=00:00:04.60 bitrate=   1.0kbits/s speed=0.0249x elapsed=0:03:04.70    \nframe=  557 fps=3.0 q=58.0 size=       1KiB time=00:00:04.63 bitrate=   1.0kbits/s speed=0.025x elapsed=0:03:05.22    \nframe=  561 fps=3.0 q=52.0 size=       1KiB time=00:00:04.66 bitrate=   1.0kbits/s speed=0.0251x elapsed=0:03:05.80    \nframe=  565 fps=3.0 q=59.0 size=       1KiB time=00:00:04.70 bitrate=   1.0kbits/s speed=0.0252x elapsed=0:03:06.37    \nframe=  569 fps=3.0 q=57.0 size=       1KiB time=00:00:04.73 bitrate=   0.9kbits/s speed=0.0253x elapsed=0:03:06.92    \nframe=  569 fps=3.0 q=57.0 size=       1KiB time=00:00:04.73 bitrate=   0.9kbits/s speed=0.0252x elapsed=0:03:07.46    \nframe=  573 fps=3.0 q=58.0 size=       1KiB time=00:00:04.76 bitrate=   0.9kbits/s speed=0.0254x elapsed=0:03:08.01    \nframe=  577 fps=3.1 q=52.0 size=       1KiB time=00:00:04.80 bitrate=   0.9kbits/s speed=0.0255x elapsed=0:03:08.56    \nframe=  581 fps=3.1 q=59.0 size=       1KiB time=00:00:04.83 bitrate=   0.9kbits/s speed=0.0256x elapsed=0:03:09.07    \nframe=  585 fps=3.1 q=57.0 size=       1KiB time=00:00:04.86 bitrate=   0.9kbits/s speed=0.0257x elapsed=0:03:09.64    \nframe=  589 fps=3.1 q=62.0 size=       1KiB time=00:00:04.88 bitrate=   0.9kbits/s speed=0.0257x elapsed=0:03:10.16    \n[out#0/matroska @ 00000235744790c0] video:879KiB audio:0KiB subtitle:0KiB other streams:0KiB global headers:0KiB muxing overhead: 0.366646%\nframe=  600 fps=3.2 q=63.0 Lsize=     883KiB time=00:00:04.99 bitrate=1448.7kbits/s speed=0.0262x elapsed=0:03:10.42    \n",
  "seconds": 192.52923154830933,
  "probe_out": {}
}